# xmcd
#
# Track frame offsets: 
#        150
#        14480
#        31401
#        49178
#        65697
#        84484
#        104838
#        122388
#        140271
#        155638
#        185254
#        203924
#        222017
#        235937
#        248882
#        265266
#        281341
#        296707
#        310722
#        326542
#        341218
#
# Disc length: 4799 seconds
#
# Revision: 0
# Processed by: cddbd v1.5.2PL0 Copyright (c) Steve Scherf et al.
# Submitted via: ExactAudioCopy v0.99pb4
#
DISCID=3c12bd15
DTITLE=Various Artist - prevue promo 1163A-5
DYEAR=2005
DGENRE=pop
TTITLE0=Papa Roach - Scars
TTITLE1=Joe Cocker - Chain Of Fools
TTITLE2=Aslyn - Gotta Get Over You
TTITLE3=Carole King - Pleasant Valley Sunday 
TTITLE4=Lisa Marie Presley - Idiot 
TTITLE5=D.H.T. - Listen To Your Heart
TTITLE6=Alicia - Love Will Talk
TTITLE7=Omarion - O
TTITLE8=Daddy Yankee - Like You 
TTITLE9=Mary Gauthier - Wheel Inside The Wheel
TTITLE10=Tracy Bonham - Something Beautiful
TTITLE11=Lizz Wright - Trouble 
TTITLE12=deSol - Karma 
TTITLE13=Shout Out Louds - The Comeback 
TTITLE14=Fischerspooner - Never Win
TTITLE15=Missy Higgins - Scar 
TTITLE16=Kinison - You'll Never Guess Who Died 
TTITLE17=OK GO - Do What You Want 
TTITLE18=Used and My Chemical Romance - Under Pressure 
TTITLE19=Diamond Nights - The Girl's Attractive
TTITLE20=Diamond Nights - Saturday Fantastic 
EXTD=
EXTT0=
EXTT1=
EXTT2=
EXTT3=
EXTT4=
EXTT5=
EXTT6=
EXTT7=
EXTT8=
EXTT9=
EXTT10=
EXTT11=
EXTT12=
EXTT13=
EXTT14=
EXTT15=
EXTT16=
EXTT17=
EXTT18=
EXTT19=
EXTT20=
PLAYORDER=
